%TF.GenerationSoftware,KiCad,Pcbnew,9.0.2*%
%TF.CreationDate,2025-06-10T15:27:33-03:00*%
%TF.ProjectId,proj3_potencia,70726f6a-335f-4706-9f74-656e6369612e,rev?*%
%TF.SameCoordinates,Original*%
%TF.FileFunction,Legend,Top*%
%TF.FilePolarity,Positive*%
%FSLAX46Y46*%
G04 Gerber Fmt 4.6, Leading zero omitted, Abs format (unit mm)*
G04 Created by KiCad (PCBNEW 9.0.2) date 2025-06-10 15:27:33*
%MOMM*%
%LPD*%
G01*
G04 APERTURE LIST*
%ADD10C,0.150000*%
%ADD11C,0.120000*%
%ADD12C,0.127000*%
%ADD13C,0.200000*%
G04 APERTURE END LIST*
D10*
X113234819Y-73516666D02*
X112758628Y-73849999D01*
X113234819Y-74088094D02*
X112234819Y-74088094D01*
X112234819Y-74088094D02*
X112234819Y-73707142D01*
X112234819Y-73707142D02*
X112282438Y-73611904D01*
X112282438Y-73611904D02*
X112330057Y-73564285D01*
X112330057Y-73564285D02*
X112425295Y-73516666D01*
X112425295Y-73516666D02*
X112568152Y-73516666D01*
X112568152Y-73516666D02*
X112663390Y-73564285D01*
X112663390Y-73564285D02*
X112711009Y-73611904D01*
X112711009Y-73611904D02*
X112758628Y-73707142D01*
X112758628Y-73707142D02*
X112758628Y-74088094D01*
X112234819Y-72611904D02*
X112234819Y-73088094D01*
X112234819Y-73088094D02*
X112711009Y-73135713D01*
X112711009Y-73135713D02*
X112663390Y-73088094D01*
X112663390Y-73088094D02*
X112615771Y-72992856D01*
X112615771Y-72992856D02*
X112615771Y-72754761D01*
X112615771Y-72754761D02*
X112663390Y-72659523D01*
X112663390Y-72659523D02*
X112711009Y-72611904D01*
X112711009Y-72611904D02*
X112806247Y-72564285D01*
X112806247Y-72564285D02*
X113044342Y-72564285D01*
X113044342Y-72564285D02*
X113139580Y-72611904D01*
X113139580Y-72611904D02*
X113187200Y-72659523D01*
X113187200Y-72659523D02*
X113234819Y-72754761D01*
X113234819Y-72754761D02*
X113234819Y-72992856D01*
X113234819Y-72992856D02*
X113187200Y-73088094D01*
X113187200Y-73088094D02*
X113139580Y-73135713D01*
X176694761Y-100150057D02*
X176599523Y-100102438D01*
X176599523Y-100102438D02*
X176504285Y-100007200D01*
X176504285Y-100007200D02*
X176361428Y-99864342D01*
X176361428Y-99864342D02*
X176266190Y-99816723D01*
X176266190Y-99816723D02*
X176170952Y-99816723D01*
X176218571Y-100054819D02*
X176123333Y-100007200D01*
X176123333Y-100007200D02*
X176028095Y-99911961D01*
X176028095Y-99911961D02*
X175980476Y-99721485D01*
X175980476Y-99721485D02*
X175980476Y-99388152D01*
X175980476Y-99388152D02*
X176028095Y-99197676D01*
X176028095Y-99197676D02*
X176123333Y-99102438D01*
X176123333Y-99102438D02*
X176218571Y-99054819D01*
X176218571Y-99054819D02*
X176409047Y-99054819D01*
X176409047Y-99054819D02*
X176504285Y-99102438D01*
X176504285Y-99102438D02*
X176599523Y-99197676D01*
X176599523Y-99197676D02*
X176647142Y-99388152D01*
X176647142Y-99388152D02*
X176647142Y-99721485D01*
X176647142Y-99721485D02*
X176599523Y-99911961D01*
X176599523Y-99911961D02*
X176504285Y-100007200D01*
X176504285Y-100007200D02*
X176409047Y-100054819D01*
X176409047Y-100054819D02*
X176218571Y-100054819D01*
X177504285Y-99054819D02*
X177313809Y-99054819D01*
X177313809Y-99054819D02*
X177218571Y-99102438D01*
X177218571Y-99102438D02*
X177170952Y-99150057D01*
X177170952Y-99150057D02*
X177075714Y-99292914D01*
X177075714Y-99292914D02*
X177028095Y-99483390D01*
X177028095Y-99483390D02*
X177028095Y-99864342D01*
X177028095Y-99864342D02*
X177075714Y-99959580D01*
X177075714Y-99959580D02*
X177123333Y-100007200D01*
X177123333Y-100007200D02*
X177218571Y-100054819D01*
X177218571Y-100054819D02*
X177409047Y-100054819D01*
X177409047Y-100054819D02*
X177504285Y-100007200D01*
X177504285Y-100007200D02*
X177551904Y-99959580D01*
X177551904Y-99959580D02*
X177599523Y-99864342D01*
X177599523Y-99864342D02*
X177599523Y-99626247D01*
X177599523Y-99626247D02*
X177551904Y-99531009D01*
X177551904Y-99531009D02*
X177504285Y-99483390D01*
X177504285Y-99483390D02*
X177409047Y-99435771D01*
X177409047Y-99435771D02*
X177218571Y-99435771D01*
X177218571Y-99435771D02*
X177123333Y-99483390D01*
X177123333Y-99483390D02*
X177075714Y-99531009D01*
X177075714Y-99531009D02*
X177028095Y-99626247D01*
X182109580Y-91666666D02*
X182157200Y-91714285D01*
X182157200Y-91714285D02*
X182204819Y-91857142D01*
X182204819Y-91857142D02*
X182204819Y-91952380D01*
X182204819Y-91952380D02*
X182157200Y-92095237D01*
X182157200Y-92095237D02*
X182061961Y-92190475D01*
X182061961Y-92190475D02*
X181966723Y-92238094D01*
X181966723Y-92238094D02*
X181776247Y-92285713D01*
X181776247Y-92285713D02*
X181633390Y-92285713D01*
X181633390Y-92285713D02*
X181442914Y-92238094D01*
X181442914Y-92238094D02*
X181347676Y-92190475D01*
X181347676Y-92190475D02*
X181252438Y-92095237D01*
X181252438Y-92095237D02*
X181204819Y-91952380D01*
X181204819Y-91952380D02*
X181204819Y-91857142D01*
X181204819Y-91857142D02*
X181252438Y-91714285D01*
X181252438Y-91714285D02*
X181300057Y-91666666D01*
X181300057Y-91285713D02*
X181252438Y-91238094D01*
X181252438Y-91238094D02*
X181204819Y-91142856D01*
X181204819Y-91142856D02*
X181204819Y-90904761D01*
X181204819Y-90904761D02*
X181252438Y-90809523D01*
X181252438Y-90809523D02*
X181300057Y-90761904D01*
X181300057Y-90761904D02*
X181395295Y-90714285D01*
X181395295Y-90714285D02*
X181490533Y-90714285D01*
X181490533Y-90714285D02*
X181633390Y-90761904D01*
X181633390Y-90761904D02*
X182204819Y-91333332D01*
X182204819Y-91333332D02*
X182204819Y-90714285D01*
X121683333Y-80384819D02*
X121350000Y-79908628D01*
X121111905Y-80384819D02*
X121111905Y-79384819D01*
X121111905Y-79384819D02*
X121492857Y-79384819D01*
X121492857Y-79384819D02*
X121588095Y-79432438D01*
X121588095Y-79432438D02*
X121635714Y-79480057D01*
X121635714Y-79480057D02*
X121683333Y-79575295D01*
X121683333Y-79575295D02*
X121683333Y-79718152D01*
X121683333Y-79718152D02*
X121635714Y-79813390D01*
X121635714Y-79813390D02*
X121588095Y-79861009D01*
X121588095Y-79861009D02*
X121492857Y-79908628D01*
X121492857Y-79908628D02*
X121111905Y-79908628D01*
X122635714Y-80384819D02*
X122064286Y-80384819D01*
X122350000Y-80384819D02*
X122350000Y-79384819D01*
X122350000Y-79384819D02*
X122254762Y-79527676D01*
X122254762Y-79527676D02*
X122159524Y-79622914D01*
X122159524Y-79622914D02*
X122064286Y-79670533D01*
X92896666Y-80334819D02*
X92896666Y-81049104D01*
X92896666Y-81049104D02*
X92849047Y-81191961D01*
X92849047Y-81191961D02*
X92753809Y-81287200D01*
X92753809Y-81287200D02*
X92610952Y-81334819D01*
X92610952Y-81334819D02*
X92515714Y-81334819D01*
X93849047Y-80334819D02*
X93372857Y-80334819D01*
X93372857Y-80334819D02*
X93325238Y-80811009D01*
X93325238Y-80811009D02*
X93372857Y-80763390D01*
X93372857Y-80763390D02*
X93468095Y-80715771D01*
X93468095Y-80715771D02*
X93706190Y-80715771D01*
X93706190Y-80715771D02*
X93801428Y-80763390D01*
X93801428Y-80763390D02*
X93849047Y-80811009D01*
X93849047Y-80811009D02*
X93896666Y-80906247D01*
X93896666Y-80906247D02*
X93896666Y-81144342D01*
X93896666Y-81144342D02*
X93849047Y-81239580D01*
X93849047Y-81239580D02*
X93801428Y-81287200D01*
X93801428Y-81287200D02*
X93706190Y-81334819D01*
X93706190Y-81334819D02*
X93468095Y-81334819D01*
X93468095Y-81334819D02*
X93372857Y-81287200D01*
X93372857Y-81287200D02*
X93325238Y-81239580D01*
X164374761Y-80750057D02*
X164279523Y-80702438D01*
X164279523Y-80702438D02*
X164184285Y-80607200D01*
X164184285Y-80607200D02*
X164041428Y-80464342D01*
X164041428Y-80464342D02*
X163946190Y-80416723D01*
X163946190Y-80416723D02*
X163850952Y-80416723D01*
X163898571Y-80654819D02*
X163803333Y-80607200D01*
X163803333Y-80607200D02*
X163708095Y-80511961D01*
X163708095Y-80511961D02*
X163660476Y-80321485D01*
X163660476Y-80321485D02*
X163660476Y-79988152D01*
X163660476Y-79988152D02*
X163708095Y-79797676D01*
X163708095Y-79797676D02*
X163803333Y-79702438D01*
X163803333Y-79702438D02*
X163898571Y-79654819D01*
X163898571Y-79654819D02*
X164089047Y-79654819D01*
X164089047Y-79654819D02*
X164184285Y-79702438D01*
X164184285Y-79702438D02*
X164279523Y-79797676D01*
X164279523Y-79797676D02*
X164327142Y-79988152D01*
X164327142Y-79988152D02*
X164327142Y-80321485D01*
X164327142Y-80321485D02*
X164279523Y-80511961D01*
X164279523Y-80511961D02*
X164184285Y-80607200D01*
X164184285Y-80607200D02*
X164089047Y-80654819D01*
X164089047Y-80654819D02*
X163898571Y-80654819D01*
X164660476Y-79654819D02*
X165279523Y-79654819D01*
X165279523Y-79654819D02*
X164946190Y-80035771D01*
X164946190Y-80035771D02*
X165089047Y-80035771D01*
X165089047Y-80035771D02*
X165184285Y-80083390D01*
X165184285Y-80083390D02*
X165231904Y-80131009D01*
X165231904Y-80131009D02*
X165279523Y-80226247D01*
X165279523Y-80226247D02*
X165279523Y-80464342D01*
X165279523Y-80464342D02*
X165231904Y-80559580D01*
X165231904Y-80559580D02*
X165184285Y-80607200D01*
X165184285Y-80607200D02*
X165089047Y-80654819D01*
X165089047Y-80654819D02*
X164803333Y-80654819D01*
X164803333Y-80654819D02*
X164708095Y-80607200D01*
X164708095Y-80607200D02*
X164660476Y-80559580D01*
X191134819Y-98293333D02*
X191849104Y-98293333D01*
X191849104Y-98293333D02*
X191991961Y-98340952D01*
X191991961Y-98340952D02*
X192087200Y-98436190D01*
X192087200Y-98436190D02*
X192134819Y-98579047D01*
X192134819Y-98579047D02*
X192134819Y-98674285D01*
X191134819Y-97912380D02*
X191134819Y-97293333D01*
X191134819Y-97293333D02*
X191515771Y-97626666D01*
X191515771Y-97626666D02*
X191515771Y-97483809D01*
X191515771Y-97483809D02*
X191563390Y-97388571D01*
X191563390Y-97388571D02*
X191611009Y-97340952D01*
X191611009Y-97340952D02*
X191706247Y-97293333D01*
X191706247Y-97293333D02*
X191944342Y-97293333D01*
X191944342Y-97293333D02*
X192039580Y-97340952D01*
X192039580Y-97340952D02*
X192087200Y-97388571D01*
X192087200Y-97388571D02*
X192134819Y-97483809D01*
X192134819Y-97483809D02*
X192134819Y-97769523D01*
X192134819Y-97769523D02*
X192087200Y-97864761D01*
X192087200Y-97864761D02*
X192039580Y-97912380D01*
X155761905Y-59244819D02*
X155761905Y-58244819D01*
X155761905Y-58244819D02*
X156000000Y-58244819D01*
X156000000Y-58244819D02*
X156142857Y-58292438D01*
X156142857Y-58292438D02*
X156238095Y-58387676D01*
X156238095Y-58387676D02*
X156285714Y-58482914D01*
X156285714Y-58482914D02*
X156333333Y-58673390D01*
X156333333Y-58673390D02*
X156333333Y-58816247D01*
X156333333Y-58816247D02*
X156285714Y-59006723D01*
X156285714Y-59006723D02*
X156238095Y-59101961D01*
X156238095Y-59101961D02*
X156142857Y-59197200D01*
X156142857Y-59197200D02*
X156000000Y-59244819D01*
X156000000Y-59244819D02*
X155761905Y-59244819D01*
X156714286Y-58340057D02*
X156761905Y-58292438D01*
X156761905Y-58292438D02*
X156857143Y-58244819D01*
X156857143Y-58244819D02*
X157095238Y-58244819D01*
X157095238Y-58244819D02*
X157190476Y-58292438D01*
X157190476Y-58292438D02*
X157238095Y-58340057D01*
X157238095Y-58340057D02*
X157285714Y-58435295D01*
X157285714Y-58435295D02*
X157285714Y-58530533D01*
X157285714Y-58530533D02*
X157238095Y-58673390D01*
X157238095Y-58673390D02*
X156666667Y-59244819D01*
X156666667Y-59244819D02*
X157285714Y-59244819D01*
X144683333Y-77084819D02*
X144350000Y-76608628D01*
X144111905Y-77084819D02*
X144111905Y-76084819D01*
X144111905Y-76084819D02*
X144492857Y-76084819D01*
X144492857Y-76084819D02*
X144588095Y-76132438D01*
X144588095Y-76132438D02*
X144635714Y-76180057D01*
X144635714Y-76180057D02*
X144683333Y-76275295D01*
X144683333Y-76275295D02*
X144683333Y-76418152D01*
X144683333Y-76418152D02*
X144635714Y-76513390D01*
X144635714Y-76513390D02*
X144588095Y-76561009D01*
X144588095Y-76561009D02*
X144492857Y-76608628D01*
X144492857Y-76608628D02*
X144111905Y-76608628D01*
X145016667Y-76084819D02*
X145635714Y-76084819D01*
X145635714Y-76084819D02*
X145302381Y-76465771D01*
X145302381Y-76465771D02*
X145445238Y-76465771D01*
X145445238Y-76465771D02*
X145540476Y-76513390D01*
X145540476Y-76513390D02*
X145588095Y-76561009D01*
X145588095Y-76561009D02*
X145635714Y-76656247D01*
X145635714Y-76656247D02*
X145635714Y-76894342D01*
X145635714Y-76894342D02*
X145588095Y-76989580D01*
X145588095Y-76989580D02*
X145540476Y-77037200D01*
X145540476Y-77037200D02*
X145445238Y-77084819D01*
X145445238Y-77084819D02*
X145159524Y-77084819D01*
X145159524Y-77084819D02*
X145064286Y-77037200D01*
X145064286Y-77037200D02*
X145016667Y-76989580D01*
X171483333Y-94674819D02*
X171150000Y-94198628D01*
X170911905Y-94674819D02*
X170911905Y-93674819D01*
X170911905Y-93674819D02*
X171292857Y-93674819D01*
X171292857Y-93674819D02*
X171388095Y-93722438D01*
X171388095Y-93722438D02*
X171435714Y-93770057D01*
X171435714Y-93770057D02*
X171483333Y-93865295D01*
X171483333Y-93865295D02*
X171483333Y-94008152D01*
X171483333Y-94008152D02*
X171435714Y-94103390D01*
X171435714Y-94103390D02*
X171388095Y-94151009D01*
X171388095Y-94151009D02*
X171292857Y-94198628D01*
X171292857Y-94198628D02*
X170911905Y-94198628D01*
X172054762Y-94103390D02*
X171959524Y-94055771D01*
X171959524Y-94055771D02*
X171911905Y-94008152D01*
X171911905Y-94008152D02*
X171864286Y-93912914D01*
X171864286Y-93912914D02*
X171864286Y-93865295D01*
X171864286Y-93865295D02*
X171911905Y-93770057D01*
X171911905Y-93770057D02*
X171959524Y-93722438D01*
X171959524Y-93722438D02*
X172054762Y-93674819D01*
X172054762Y-93674819D02*
X172245238Y-93674819D01*
X172245238Y-93674819D02*
X172340476Y-93722438D01*
X172340476Y-93722438D02*
X172388095Y-93770057D01*
X172388095Y-93770057D02*
X172435714Y-93865295D01*
X172435714Y-93865295D02*
X172435714Y-93912914D01*
X172435714Y-93912914D02*
X172388095Y-94008152D01*
X172388095Y-94008152D02*
X172340476Y-94055771D01*
X172340476Y-94055771D02*
X172245238Y-94103390D01*
X172245238Y-94103390D02*
X172054762Y-94103390D01*
X172054762Y-94103390D02*
X171959524Y-94151009D01*
X171959524Y-94151009D02*
X171911905Y-94198628D01*
X171911905Y-94198628D02*
X171864286Y-94293866D01*
X171864286Y-94293866D02*
X171864286Y-94484342D01*
X171864286Y-94484342D02*
X171911905Y-94579580D01*
X171911905Y-94579580D02*
X171959524Y-94627200D01*
X171959524Y-94627200D02*
X172054762Y-94674819D01*
X172054762Y-94674819D02*
X172245238Y-94674819D01*
X172245238Y-94674819D02*
X172340476Y-94627200D01*
X172340476Y-94627200D02*
X172388095Y-94579580D01*
X172388095Y-94579580D02*
X172435714Y-94484342D01*
X172435714Y-94484342D02*
X172435714Y-94293866D01*
X172435714Y-94293866D02*
X172388095Y-94198628D01*
X172388095Y-94198628D02*
X172340476Y-94151009D01*
X172340476Y-94151009D02*
X172245238Y-94103390D01*
X181261905Y-104424819D02*
X181261905Y-103424819D01*
X181261905Y-103424819D02*
X181500000Y-103424819D01*
X181500000Y-103424819D02*
X181642857Y-103472438D01*
X181642857Y-103472438D02*
X181738095Y-103567676D01*
X181738095Y-103567676D02*
X181785714Y-103662914D01*
X181785714Y-103662914D02*
X181833333Y-103853390D01*
X181833333Y-103853390D02*
X181833333Y-103996247D01*
X181833333Y-103996247D02*
X181785714Y-104186723D01*
X181785714Y-104186723D02*
X181738095Y-104281961D01*
X181738095Y-104281961D02*
X181642857Y-104377200D01*
X181642857Y-104377200D02*
X181500000Y-104424819D01*
X181500000Y-104424819D02*
X181261905Y-104424819D01*
X182166667Y-103424819D02*
X182785714Y-103424819D01*
X182785714Y-103424819D02*
X182452381Y-103805771D01*
X182452381Y-103805771D02*
X182595238Y-103805771D01*
X182595238Y-103805771D02*
X182690476Y-103853390D01*
X182690476Y-103853390D02*
X182738095Y-103901009D01*
X182738095Y-103901009D02*
X182785714Y-103996247D01*
X182785714Y-103996247D02*
X182785714Y-104234342D01*
X182785714Y-104234342D02*
X182738095Y-104329580D01*
X182738095Y-104329580D02*
X182690476Y-104377200D01*
X182690476Y-104377200D02*
X182595238Y-104424819D01*
X182595238Y-104424819D02*
X182309524Y-104424819D01*
X182309524Y-104424819D02*
X182214286Y-104377200D01*
X182214286Y-104377200D02*
X182166667Y-104329580D01*
X186818095Y-103854819D02*
X186818095Y-102854819D01*
X187389523Y-103854819D02*
X186960952Y-103283390D01*
X187389523Y-102854819D02*
X186818095Y-103426247D01*
X191174819Y-77892857D02*
X190698628Y-78226190D01*
X191174819Y-78464285D02*
X190174819Y-78464285D01*
X190174819Y-78464285D02*
X190174819Y-78083333D01*
X190174819Y-78083333D02*
X190222438Y-77988095D01*
X190222438Y-77988095D02*
X190270057Y-77940476D01*
X190270057Y-77940476D02*
X190365295Y-77892857D01*
X190365295Y-77892857D02*
X190508152Y-77892857D01*
X190508152Y-77892857D02*
X190603390Y-77940476D01*
X190603390Y-77940476D02*
X190651009Y-77988095D01*
X190651009Y-77988095D02*
X190698628Y-78083333D01*
X190698628Y-78083333D02*
X190698628Y-78464285D01*
X191174819Y-76940476D02*
X191174819Y-77511904D01*
X191174819Y-77226190D02*
X190174819Y-77226190D01*
X190174819Y-77226190D02*
X190317676Y-77321428D01*
X190317676Y-77321428D02*
X190412914Y-77416666D01*
X190412914Y-77416666D02*
X190460533Y-77511904D01*
X191174819Y-75988095D02*
X191174819Y-76559523D01*
X191174819Y-76273809D02*
X190174819Y-76273809D01*
X190174819Y-76273809D02*
X190317676Y-76369047D01*
X190317676Y-76369047D02*
X190412914Y-76464285D01*
X190412914Y-76464285D02*
X190460533Y-76559523D01*
X137110057Y-83325238D02*
X137062438Y-83420476D01*
X137062438Y-83420476D02*
X136967200Y-83515714D01*
X136967200Y-83515714D02*
X136824342Y-83658571D01*
X136824342Y-83658571D02*
X136776723Y-83753809D01*
X136776723Y-83753809D02*
X136776723Y-83849047D01*
X137014819Y-83801428D02*
X136967200Y-83896666D01*
X136967200Y-83896666D02*
X136871961Y-83991904D01*
X136871961Y-83991904D02*
X136681485Y-84039523D01*
X136681485Y-84039523D02*
X136348152Y-84039523D01*
X136348152Y-84039523D02*
X136157676Y-83991904D01*
X136157676Y-83991904D02*
X136062438Y-83896666D01*
X136062438Y-83896666D02*
X136014819Y-83801428D01*
X136014819Y-83801428D02*
X136014819Y-83610952D01*
X136014819Y-83610952D02*
X136062438Y-83515714D01*
X136062438Y-83515714D02*
X136157676Y-83420476D01*
X136157676Y-83420476D02*
X136348152Y-83372857D01*
X136348152Y-83372857D02*
X136681485Y-83372857D01*
X136681485Y-83372857D02*
X136871961Y-83420476D01*
X136871961Y-83420476D02*
X136967200Y-83515714D01*
X136967200Y-83515714D02*
X137014819Y-83610952D01*
X137014819Y-83610952D02*
X137014819Y-83801428D01*
X137014819Y-82420476D02*
X137014819Y-82991904D01*
X137014819Y-82706190D02*
X136014819Y-82706190D01*
X136014819Y-82706190D02*
X136157676Y-82801428D01*
X136157676Y-82801428D02*
X136252914Y-82896666D01*
X136252914Y-82896666D02*
X136300533Y-82991904D01*
X97734819Y-86816666D02*
X97258628Y-87149999D01*
X97734819Y-87388094D02*
X96734819Y-87388094D01*
X96734819Y-87388094D02*
X96734819Y-87007142D01*
X96734819Y-87007142D02*
X96782438Y-86911904D01*
X96782438Y-86911904D02*
X96830057Y-86864285D01*
X96830057Y-86864285D02*
X96925295Y-86816666D01*
X96925295Y-86816666D02*
X97068152Y-86816666D01*
X97068152Y-86816666D02*
X97163390Y-86864285D01*
X97163390Y-86864285D02*
X97211009Y-86911904D01*
X97211009Y-86911904D02*
X97258628Y-87007142D01*
X97258628Y-87007142D02*
X97258628Y-87388094D01*
X96734819Y-85959523D02*
X96734819Y-86149999D01*
X96734819Y-86149999D02*
X96782438Y-86245237D01*
X96782438Y-86245237D02*
X96830057Y-86292856D01*
X96830057Y-86292856D02*
X96972914Y-86388094D01*
X96972914Y-86388094D02*
X97163390Y-86435713D01*
X97163390Y-86435713D02*
X97544342Y-86435713D01*
X97544342Y-86435713D02*
X97639580Y-86388094D01*
X97639580Y-86388094D02*
X97687200Y-86340475D01*
X97687200Y-86340475D02*
X97734819Y-86245237D01*
X97734819Y-86245237D02*
X97734819Y-86054761D01*
X97734819Y-86054761D02*
X97687200Y-85959523D01*
X97687200Y-85959523D02*
X97639580Y-85911904D01*
X97639580Y-85911904D02*
X97544342Y-85864285D01*
X97544342Y-85864285D02*
X97306247Y-85864285D01*
X97306247Y-85864285D02*
X97211009Y-85911904D01*
X97211009Y-85911904D02*
X97163390Y-85959523D01*
X97163390Y-85959523D02*
X97115771Y-86054761D01*
X97115771Y-86054761D02*
X97115771Y-86245237D01*
X97115771Y-86245237D02*
X97163390Y-86340475D01*
X97163390Y-86340475D02*
X97211009Y-86388094D01*
X97211009Y-86388094D02*
X97306247Y-86435713D01*
X164404761Y-86125057D02*
X164309523Y-86077438D01*
X164309523Y-86077438D02*
X164214285Y-85982200D01*
X164214285Y-85982200D02*
X164071428Y-85839342D01*
X164071428Y-85839342D02*
X163976190Y-85791723D01*
X163976190Y-85791723D02*
X163880952Y-85791723D01*
X163928571Y-86029819D02*
X163833333Y-85982200D01*
X163833333Y-85982200D02*
X163738095Y-85886961D01*
X163738095Y-85886961D02*
X163690476Y-85696485D01*
X163690476Y-85696485D02*
X163690476Y-85363152D01*
X163690476Y-85363152D02*
X163738095Y-85172676D01*
X163738095Y-85172676D02*
X163833333Y-85077438D01*
X163833333Y-85077438D02*
X163928571Y-85029819D01*
X163928571Y-85029819D02*
X164119047Y-85029819D01*
X164119047Y-85029819D02*
X164214285Y-85077438D01*
X164214285Y-85077438D02*
X164309523Y-85172676D01*
X164309523Y-85172676D02*
X164357142Y-85363152D01*
X164357142Y-85363152D02*
X164357142Y-85696485D01*
X164357142Y-85696485D02*
X164309523Y-85886961D01*
X164309523Y-85886961D02*
X164214285Y-85982200D01*
X164214285Y-85982200D02*
X164119047Y-86029819D01*
X164119047Y-86029819D02*
X163928571Y-86029819D01*
X165214285Y-85363152D02*
X165214285Y-86029819D01*
X164976190Y-84982200D02*
X164738095Y-85696485D01*
X164738095Y-85696485D02*
X165357142Y-85696485D01*
X106928095Y-77544819D02*
X106928095Y-78354342D01*
X106928095Y-78354342D02*
X106975714Y-78449580D01*
X106975714Y-78449580D02*
X107023333Y-78497200D01*
X107023333Y-78497200D02*
X107118571Y-78544819D01*
X107118571Y-78544819D02*
X107309047Y-78544819D01*
X107309047Y-78544819D02*
X107404285Y-78497200D01*
X107404285Y-78497200D02*
X107451904Y-78449580D01*
X107451904Y-78449580D02*
X107499523Y-78354342D01*
X107499523Y-78354342D02*
X107499523Y-77544819D01*
X107880476Y-77544819D02*
X108499523Y-77544819D01*
X108499523Y-77544819D02*
X108166190Y-77925771D01*
X108166190Y-77925771D02*
X108309047Y-77925771D01*
X108309047Y-77925771D02*
X108404285Y-77973390D01*
X108404285Y-77973390D02*
X108451904Y-78021009D01*
X108451904Y-78021009D02*
X108499523Y-78116247D01*
X108499523Y-78116247D02*
X108499523Y-78354342D01*
X108499523Y-78354342D02*
X108451904Y-78449580D01*
X108451904Y-78449580D02*
X108404285Y-78497200D01*
X108404285Y-78497200D02*
X108309047Y-78544819D01*
X108309047Y-78544819D02*
X108023333Y-78544819D01*
X108023333Y-78544819D02*
X107928095Y-78497200D01*
X107928095Y-78497200D02*
X107880476Y-78449580D01*
X177607142Y-74424819D02*
X177273809Y-73948628D01*
X177035714Y-74424819D02*
X177035714Y-73424819D01*
X177035714Y-73424819D02*
X177416666Y-73424819D01*
X177416666Y-73424819D02*
X177511904Y-73472438D01*
X177511904Y-73472438D02*
X177559523Y-73520057D01*
X177559523Y-73520057D02*
X177607142Y-73615295D01*
X177607142Y-73615295D02*
X177607142Y-73758152D01*
X177607142Y-73758152D02*
X177559523Y-73853390D01*
X177559523Y-73853390D02*
X177511904Y-73901009D01*
X177511904Y-73901009D02*
X177416666Y-73948628D01*
X177416666Y-73948628D02*
X177035714Y-73948628D01*
X178559523Y-74424819D02*
X177988095Y-74424819D01*
X178273809Y-74424819D02*
X178273809Y-73424819D01*
X178273809Y-73424819D02*
X178178571Y-73567676D01*
X178178571Y-73567676D02*
X178083333Y-73662914D01*
X178083333Y-73662914D02*
X177988095Y-73710533D01*
X179178571Y-73424819D02*
X179273809Y-73424819D01*
X179273809Y-73424819D02*
X179369047Y-73472438D01*
X179369047Y-73472438D02*
X179416666Y-73520057D01*
X179416666Y-73520057D02*
X179464285Y-73615295D01*
X179464285Y-73615295D02*
X179511904Y-73805771D01*
X179511904Y-73805771D02*
X179511904Y-74043866D01*
X179511904Y-74043866D02*
X179464285Y-74234342D01*
X179464285Y-74234342D02*
X179416666Y-74329580D01*
X179416666Y-74329580D02*
X179369047Y-74377200D01*
X179369047Y-74377200D02*
X179273809Y-74424819D01*
X179273809Y-74424819D02*
X179178571Y-74424819D01*
X179178571Y-74424819D02*
X179083333Y-74377200D01*
X179083333Y-74377200D02*
X179035714Y-74329580D01*
X179035714Y-74329580D02*
X178988095Y-74234342D01*
X178988095Y-74234342D02*
X178940476Y-74043866D01*
X178940476Y-74043866D02*
X178940476Y-73805771D01*
X178940476Y-73805771D02*
X178988095Y-73615295D01*
X178988095Y-73615295D02*
X179035714Y-73520057D01*
X179035714Y-73520057D02*
X179083333Y-73472438D01*
X179083333Y-73472438D02*
X179178571Y-73424819D01*
X177181905Y-74234819D02*
X177181905Y-73234819D01*
X177181905Y-73234819D02*
X177420000Y-73234819D01*
X177420000Y-73234819D02*
X177562857Y-73282438D01*
X177562857Y-73282438D02*
X177658095Y-73377676D01*
X177658095Y-73377676D02*
X177705714Y-73472914D01*
X177705714Y-73472914D02*
X177753333Y-73663390D01*
X177753333Y-73663390D02*
X177753333Y-73806247D01*
X177753333Y-73806247D02*
X177705714Y-73996723D01*
X177705714Y-73996723D02*
X177658095Y-74091961D01*
X177658095Y-74091961D02*
X177562857Y-74187200D01*
X177562857Y-74187200D02*
X177420000Y-74234819D01*
X177420000Y-74234819D02*
X177181905Y-74234819D01*
X178705714Y-74234819D02*
X178134286Y-74234819D01*
X178420000Y-74234819D02*
X178420000Y-73234819D01*
X178420000Y-73234819D02*
X178324762Y-73377676D01*
X178324762Y-73377676D02*
X178229524Y-73472914D01*
X178229524Y-73472914D02*
X178134286Y-73520533D01*
X172578095Y-74804819D02*
X172578095Y-73804819D01*
X173149523Y-74804819D02*
X172720952Y-74233390D01*
X173149523Y-73804819D02*
X172578095Y-74376247D01*
X136174819Y-73166666D02*
X135698628Y-73499999D01*
X136174819Y-73738094D02*
X135174819Y-73738094D01*
X135174819Y-73738094D02*
X135174819Y-73357142D01*
X135174819Y-73357142D02*
X135222438Y-73261904D01*
X135222438Y-73261904D02*
X135270057Y-73214285D01*
X135270057Y-73214285D02*
X135365295Y-73166666D01*
X135365295Y-73166666D02*
X135508152Y-73166666D01*
X135508152Y-73166666D02*
X135603390Y-73214285D01*
X135603390Y-73214285D02*
X135651009Y-73261904D01*
X135651009Y-73261904D02*
X135698628Y-73357142D01*
X135698628Y-73357142D02*
X135698628Y-73738094D01*
X135270057Y-72785713D02*
X135222438Y-72738094D01*
X135222438Y-72738094D02*
X135174819Y-72642856D01*
X135174819Y-72642856D02*
X135174819Y-72404761D01*
X135174819Y-72404761D02*
X135222438Y-72309523D01*
X135222438Y-72309523D02*
X135270057Y-72261904D01*
X135270057Y-72261904D02*
X135365295Y-72214285D01*
X135365295Y-72214285D02*
X135460533Y-72214285D01*
X135460533Y-72214285D02*
X135603390Y-72261904D01*
X135603390Y-72261904D02*
X136174819Y-72833332D01*
X136174819Y-72833332D02*
X136174819Y-72214285D01*
X190792200Y-62686904D02*
X190839819Y-62544047D01*
X190839819Y-62544047D02*
X190839819Y-62305952D01*
X190839819Y-62305952D02*
X190792200Y-62210714D01*
X190792200Y-62210714D02*
X190744580Y-62163095D01*
X190744580Y-62163095D02*
X190649342Y-62115476D01*
X190649342Y-62115476D02*
X190554104Y-62115476D01*
X190554104Y-62115476D02*
X190458866Y-62163095D01*
X190458866Y-62163095D02*
X190411247Y-62210714D01*
X190411247Y-62210714D02*
X190363628Y-62305952D01*
X190363628Y-62305952D02*
X190316009Y-62496428D01*
X190316009Y-62496428D02*
X190268390Y-62591666D01*
X190268390Y-62591666D02*
X190220771Y-62639285D01*
X190220771Y-62639285D02*
X190125533Y-62686904D01*
X190125533Y-62686904D02*
X190030295Y-62686904D01*
X190030295Y-62686904D02*
X189935057Y-62639285D01*
X189935057Y-62639285D02*
X189887438Y-62591666D01*
X189887438Y-62591666D02*
X189839819Y-62496428D01*
X189839819Y-62496428D02*
X189839819Y-62258333D01*
X189839819Y-62258333D02*
X189887438Y-62115476D01*
X190839819Y-61163095D02*
X190839819Y-61734523D01*
X190839819Y-61448809D02*
X189839819Y-61448809D01*
X189839819Y-61448809D02*
X189982676Y-61544047D01*
X189982676Y-61544047D02*
X190077914Y-61639285D01*
X190077914Y-61639285D02*
X190125533Y-61734523D01*
X147799819Y-100166666D02*
X147799819Y-100642856D01*
X147799819Y-100642856D02*
X146799819Y-100642856D01*
X146895057Y-99880951D02*
X146847438Y-99833332D01*
X146847438Y-99833332D02*
X146799819Y-99738094D01*
X146799819Y-99738094D02*
X146799819Y-99499999D01*
X146799819Y-99499999D02*
X146847438Y-99404761D01*
X146847438Y-99404761D02*
X146895057Y-99357142D01*
X146895057Y-99357142D02*
X146990295Y-99309523D01*
X146990295Y-99309523D02*
X147085533Y-99309523D01*
X147085533Y-99309523D02*
X147228390Y-99357142D01*
X147228390Y-99357142D02*
X147799819Y-99928570D01*
X147799819Y-99928570D02*
X147799819Y-99309523D01*
X196333333Y-68609580D02*
X196285714Y-68657200D01*
X196285714Y-68657200D02*
X196142857Y-68704819D01*
X196142857Y-68704819D02*
X196047619Y-68704819D01*
X196047619Y-68704819D02*
X195904762Y-68657200D01*
X195904762Y-68657200D02*
X195809524Y-68561961D01*
X195809524Y-68561961D02*
X195761905Y-68466723D01*
X195761905Y-68466723D02*
X195714286Y-68276247D01*
X195714286Y-68276247D02*
X195714286Y-68133390D01*
X195714286Y-68133390D02*
X195761905Y-67942914D01*
X195761905Y-67942914D02*
X195809524Y-67847676D01*
X195809524Y-67847676D02*
X195904762Y-67752438D01*
X195904762Y-67752438D02*
X196047619Y-67704819D01*
X196047619Y-67704819D02*
X196142857Y-67704819D01*
X196142857Y-67704819D02*
X196285714Y-67752438D01*
X196285714Y-67752438D02*
X196333333Y-67800057D01*
X197285714Y-68704819D02*
X196714286Y-68704819D01*
X197000000Y-68704819D02*
X197000000Y-67704819D01*
X197000000Y-67704819D02*
X196904762Y-67847676D01*
X196904762Y-67847676D02*
X196809524Y-67942914D01*
X196809524Y-67942914D02*
X196714286Y-67990533D01*
X160110057Y-79595238D02*
X160062438Y-79690476D01*
X160062438Y-79690476D02*
X159967200Y-79785714D01*
X159967200Y-79785714D02*
X159824342Y-79928571D01*
X159824342Y-79928571D02*
X159776723Y-80023809D01*
X159776723Y-80023809D02*
X159776723Y-80119047D01*
X160014819Y-80071428D02*
X159967200Y-80166666D01*
X159967200Y-80166666D02*
X159871961Y-80261904D01*
X159871961Y-80261904D02*
X159681485Y-80309523D01*
X159681485Y-80309523D02*
X159348152Y-80309523D01*
X159348152Y-80309523D02*
X159157676Y-80261904D01*
X159157676Y-80261904D02*
X159062438Y-80166666D01*
X159062438Y-80166666D02*
X159014819Y-80071428D01*
X159014819Y-80071428D02*
X159014819Y-79880952D01*
X159014819Y-79880952D02*
X159062438Y-79785714D01*
X159062438Y-79785714D02*
X159157676Y-79690476D01*
X159157676Y-79690476D02*
X159348152Y-79642857D01*
X159348152Y-79642857D02*
X159681485Y-79642857D01*
X159681485Y-79642857D02*
X159871961Y-79690476D01*
X159871961Y-79690476D02*
X159967200Y-79785714D01*
X159967200Y-79785714D02*
X160014819Y-79880952D01*
X160014819Y-79880952D02*
X160014819Y-80071428D01*
X159110057Y-79261904D02*
X159062438Y-79214285D01*
X159062438Y-79214285D02*
X159014819Y-79119047D01*
X159014819Y-79119047D02*
X159014819Y-78880952D01*
X159014819Y-78880952D02*
X159062438Y-78785714D01*
X159062438Y-78785714D02*
X159110057Y-78738095D01*
X159110057Y-78738095D02*
X159205295Y-78690476D01*
X159205295Y-78690476D02*
X159300533Y-78690476D01*
X159300533Y-78690476D02*
X159443390Y-78738095D01*
X159443390Y-78738095D02*
X160014819Y-79309523D01*
X160014819Y-79309523D02*
X160014819Y-78690476D01*
X167333333Y-59484819D02*
X167000000Y-59008628D01*
X166761905Y-59484819D02*
X166761905Y-58484819D01*
X166761905Y-58484819D02*
X167142857Y-58484819D01*
X167142857Y-58484819D02*
X167238095Y-58532438D01*
X167238095Y-58532438D02*
X167285714Y-58580057D01*
X167285714Y-58580057D02*
X167333333Y-58675295D01*
X167333333Y-58675295D02*
X167333333Y-58818152D01*
X167333333Y-58818152D02*
X167285714Y-58913390D01*
X167285714Y-58913390D02*
X167238095Y-58961009D01*
X167238095Y-58961009D02*
X167142857Y-59008628D01*
X167142857Y-59008628D02*
X166761905Y-59008628D01*
X167666667Y-58484819D02*
X168333333Y-58484819D01*
X168333333Y-58484819D02*
X167904762Y-59484819D01*
X149833333Y-65234819D02*
X149500000Y-64758628D01*
X149261905Y-65234819D02*
X149261905Y-64234819D01*
X149261905Y-64234819D02*
X149642857Y-64234819D01*
X149642857Y-64234819D02*
X149738095Y-64282438D01*
X149738095Y-64282438D02*
X149785714Y-64330057D01*
X149785714Y-64330057D02*
X149833333Y-64425295D01*
X149833333Y-64425295D02*
X149833333Y-64568152D01*
X149833333Y-64568152D02*
X149785714Y-64663390D01*
X149785714Y-64663390D02*
X149738095Y-64711009D01*
X149738095Y-64711009D02*
X149642857Y-64758628D01*
X149642857Y-64758628D02*
X149261905Y-64758628D01*
X150690476Y-64568152D02*
X150690476Y-65234819D01*
X150452381Y-64187200D02*
X150214286Y-64901485D01*
X150214286Y-64901485D02*
X150833333Y-64901485D01*
X196671666Y-68352319D02*
X196671666Y-69066604D01*
X196671666Y-69066604D02*
X196624047Y-69209461D01*
X196624047Y-69209461D02*
X196528809Y-69304700D01*
X196528809Y-69304700D02*
X196385952Y-69352319D01*
X196385952Y-69352319D02*
X196290714Y-69352319D01*
X197100238Y-68447557D02*
X197147857Y-68399938D01*
X197147857Y-68399938D02*
X197243095Y-68352319D01*
X197243095Y-68352319D02*
X197481190Y-68352319D01*
X197481190Y-68352319D02*
X197576428Y-68399938D01*
X197576428Y-68399938D02*
X197624047Y-68447557D01*
X197624047Y-68447557D02*
X197671666Y-68542795D01*
X197671666Y-68542795D02*
X197671666Y-68638033D01*
X197671666Y-68638033D02*
X197624047Y-68780890D01*
X197624047Y-68780890D02*
X197052619Y-69352319D01*
X197052619Y-69352319D02*
X197671666Y-69352319D01*
X138126666Y-92634819D02*
X138126666Y-93349104D01*
X138126666Y-93349104D02*
X138079047Y-93491961D01*
X138079047Y-93491961D02*
X137983809Y-93587200D01*
X137983809Y-93587200D02*
X137840952Y-93634819D01*
X137840952Y-93634819D02*
X137745714Y-93634819D01*
X139126666Y-93634819D02*
X138555238Y-93634819D01*
X138840952Y-93634819D02*
X138840952Y-92634819D01*
X138840952Y-92634819D02*
X138745714Y-92777676D01*
X138745714Y-92777676D02*
X138650476Y-92872914D01*
X138650476Y-92872914D02*
X138555238Y-92920533D01*
D11*
%TO.C,R5*%
X115500000Y-68040000D02*
X115500000Y-68730000D01*
X115500000Y-78660000D02*
X115500000Y-77970000D01*
X113780000Y-77970000D02*
X117220000Y-77970000D01*
X117220000Y-68730000D01*
X113780000Y-68730000D01*
X113780000Y-77970000D01*
%TO.C,Q6*%
X171680000Y-98760000D02*
X171680000Y-94140000D01*
X174940000Y-98760000D02*
X174940000Y-97380000D01*
X178640000Y-98760000D02*
X178640000Y-97380000D01*
X181900000Y-94140000D02*
X171680000Y-94140000D01*
X181900000Y-97380000D02*
X171680000Y-97380000D01*
X181900000Y-98760000D02*
X171680000Y-98760000D01*
X181900000Y-98760000D02*
X181900000Y-94140000D01*
%TO.C,C2*%
X182920000Y-91460000D02*
X191080000Y-91460000D01*
X182920000Y-91500000D02*
X191080000Y-91500000D01*
X182921000Y-91420000D02*
X191079000Y-91420000D01*
X182922000Y-91380000D02*
X191078000Y-91380000D01*
X182923000Y-91340000D02*
X191077000Y-91340000D01*
X182925000Y-91300000D02*
X191075000Y-91300000D01*
X182927000Y-91260000D02*
X191073000Y-91260000D01*
X182930000Y-91220000D02*
X191070000Y-91220000D01*
X182932000Y-91180000D02*
X191068000Y-91180000D01*
X182936000Y-91140000D02*
X191064000Y-91140000D01*
X182939000Y-91100000D02*
X191061000Y-91100000D01*
X182944000Y-91060000D02*
X191056000Y-91060000D01*
X182948000Y-91020000D02*
X191052000Y-91020000D01*
X182953000Y-90980000D02*
X191047000Y-90980000D01*
X182958000Y-90940000D02*
X191042000Y-90940000D01*
X182964000Y-90900000D02*
X191036000Y-90900000D01*
X182970000Y-90860000D02*
X191030000Y-90860000D01*
X182977000Y-90820000D02*
X191023000Y-90820000D01*
X182983000Y-90780000D02*
X191017000Y-90780000D01*
X182991000Y-90740000D02*
X191009000Y-90740000D01*
X182998000Y-90700000D02*
X191002000Y-90700000D01*
X183007000Y-90660000D02*
X190993000Y-90660000D01*
X183015000Y-90620000D02*
X190985000Y-90620000D01*
X183024000Y-90580000D02*
X190976000Y-90580000D01*
X183033000Y-90540000D02*
X190967000Y-90540000D01*
X183043000Y-90500000D02*
X190957000Y-90500000D01*
X183053000Y-90460000D02*
X190947000Y-90460000D01*
X183064000Y-90420000D02*
X190936000Y-90420000D01*
X183075000Y-90380000D02*
X190925000Y-90380000D01*
X183087000Y-90340000D02*
X190913000Y-90340000D01*
X183099000Y-90300000D02*
X190901000Y-90300000D01*
X183111000Y-90260000D02*
X190889000Y-90260000D01*
X183124000Y-90220000D02*
X190876000Y-90220000D01*
X183137000Y-90180000D02*
X190863000Y-90180000D01*
X183151000Y-90140000D02*
X190849000Y-90140000D01*
X183165000Y-90100000D02*
X190835000Y-90100000D01*
X183180000Y-90060000D02*
X190820000Y-90060000D01*
X183195000Y-90020000D02*
X185960000Y-90020000D01*
X183211000Y-89980000D02*
X185960000Y-89980000D01*
X183227000Y-89940000D02*
X185960000Y-89940000D01*
X183243000Y-89900000D02*
X185960000Y-89900000D01*
X183260000Y-89860000D02*
X185960000Y-89860000D01*
X183278000Y-89820000D02*
X185960000Y-89820000D01*
X183296000Y-89780000D02*
X185960000Y-89780000D01*
X183315000Y-89740000D02*
X185960000Y-89740000D01*
X183334000Y-89700000D02*
X185960000Y-89700000D01*
X183354000Y-89660000D02*
X185960000Y-89660000D01*
X183374000Y-89620000D02*
X185960000Y-89620000D01*
X183395000Y-89580000D02*
X185960000Y-89580000D01*
X183416000Y-89540000D02*
X185960000Y-89540000D01*
X183438000Y-89500000D02*
X185960000Y-89500000D01*
X183461000Y-89460000D02*
X185960000Y-89460000D01*
X183484000Y-89420000D02*
X185960000Y-89420000D01*
X183507000Y-89380000D02*
X185960000Y-89380000D01*
X183532000Y-89340000D02*
X185960000Y-89340000D01*
X183557000Y-89300000D02*
X185960000Y-89300000D01*
X183582000Y-89260000D02*
X185960000Y-89260000D01*
X183608000Y-89220000D02*
X185960000Y-89220000D01*
X183635000Y-89180000D02*
X185960000Y-89180000D01*
X183663000Y-89140000D02*
X185960000Y-89140000D01*
X183691000Y-89100000D02*
X185960000Y-89100000D01*
X183720000Y-89060000D02*
X185960000Y-89060000D01*
X183750000Y-89020000D02*
X185960000Y-89020000D01*
X183781000Y-88980000D02*
X185960000Y-88980000D01*
X183812000Y-88940000D02*
X185960000Y-88940000D01*
X183844000Y-88900000D02*
X185960000Y-88900000D01*
X183877000Y-88860000D02*
X185960000Y-88860000D01*
X183911000Y-88820000D02*
X185960000Y-88820000D01*
X183945000Y-88780000D02*
X185960000Y-88780000D01*
X183981000Y-88740000D02*
X185960000Y-88740000D01*
X184018000Y-88700000D02*
X185960000Y-88700000D01*
X184055000Y-88660000D02*
X185960000Y-88660000D01*
X184094000Y-88620000D02*
X185960000Y-88620000D01*
X184133000Y-88580000D02*
X185960000Y-88580000D01*
X184174000Y-88540000D02*
X185960000Y-88540000D01*
X184216000Y-88500000D02*
X185960000Y-88500000D01*
X184259000Y-88460000D02*
X185960000Y-88460000D01*
X184285000Y-95509698D02*
X185085000Y-95509698D01*
X184304000Y-88420000D02*
X185960000Y-88420000D01*
X184349000Y-88380000D02*
X185960000Y-88380000D01*
X184396000Y-88340000D02*
X185960000Y-88340000D01*
X184445000Y-88300000D02*
X185960000Y-88300000D01*
X184495000Y-88260000D02*
X185960000Y-88260000D01*
X184547000Y-88220000D02*
X185960000Y-88220000D01*
X184600000Y-88180000D02*
X185960000Y-88180000D01*
X184656000Y-88140000D02*
X185960000Y-88140000D01*
X184685000Y-95909698D02*
X184685000Y-95109698D01*
X184713000Y-88100000D02*
X185960000Y-88100000D01*
X184773000Y-88060000D02*
X185960000Y-88060000D01*
X184835000Y-88020000D02*
X185960000Y-88020000D01*
X184899000Y-87980000D02*
X185960000Y-87980000D01*
X184966000Y-87940000D02*
X189034000Y-87940000D01*
X185036000Y-87900000D02*
X188964000Y-87900000D01*
X185110000Y-87860000D02*
X188890000Y-87860000D01*
X185187000Y-87820000D02*
X188813000Y-87820000D01*
X185269000Y-87780000D02*
X188731000Y-87780000D01*
X185356000Y-87740000D02*
X188644000Y-87740000D01*
X185448000Y-87700000D02*
X188552000Y-87700000D01*
X185547000Y-87660000D02*
X188453000Y-87660000D01*
X185654000Y-87620000D02*
X188346000Y-87620000D01*
X185772000Y-87580000D02*
X188228000Y-87580000D01*
X185903000Y-87540000D02*
X188097000Y-87540000D01*
X186053000Y-87500000D02*
X187947000Y-87500000D01*
X186232000Y-87460000D02*
X187768000Y-87460000D01*
X186467000Y-87420000D02*
X187533000Y-87420000D01*
X188040000Y-87980000D02*
X189101000Y-87980000D01*
X188040000Y-88020000D02*
X189165000Y-88020000D01*
X188040000Y-88060000D02*
X189227000Y-88060000D01*
X188040000Y-88100000D02*
X189287000Y-88100000D01*
X188040000Y-88140000D02*
X189344000Y-88140000D01*
X188040000Y-88180000D02*
X189400000Y-88180000D01*
X188040000Y-88220000D02*
X189453000Y-88220000D01*
X188040000Y-88260000D02*
X189505000Y-88260000D01*
X188040000Y-88300000D02*
X189555000Y-88300000D01*
X188040000Y-88340000D02*
X189604000Y-88340000D01*
X188040000Y-88380000D02*
X189651000Y-88380000D01*
X188040000Y-88420000D02*
X189696000Y-88420000D01*
X188040000Y-88460000D02*
X189741000Y-88460000D01*
X188040000Y-88500000D02*
X189784000Y-88500000D01*
X188040000Y-88540000D02*
X189826000Y-88540000D01*
X188040000Y-88580000D02*
X189867000Y-88580000D01*
X188040000Y-88620000D02*
X189906000Y-88620000D01*
X188040000Y-88660000D02*
X189945000Y-88660000D01*
X188040000Y-88700000D02*
X189982000Y-88700000D01*
X188040000Y-88740000D02*
X190019000Y-88740000D01*
X188040000Y-88780000D02*
X190055000Y-88780000D01*
X188040000Y-88820000D02*
X190089000Y-88820000D01*
X188040000Y-88860000D02*
X190123000Y-88860000D01*
X188040000Y-88900000D02*
X190156000Y-88900000D01*
X188040000Y-88940000D02*
X190188000Y-88940000D01*
X188040000Y-88980000D02*
X190219000Y-88980000D01*
X188040000Y-89020000D02*
X190250000Y-89020000D01*
X188040000Y-89060000D02*
X190280000Y-89060000D01*
X188040000Y-89100000D02*
X190309000Y-89100000D01*
X188040000Y-89140000D02*
X190337000Y-89140000D01*
X188040000Y-89180000D02*
X190365000Y-89180000D01*
X188040000Y-89220000D02*
X190392000Y-89220000D01*
X188040000Y-89260000D02*
X190418000Y-89260000D01*
X188040000Y-89300000D02*
X190443000Y-89300000D01*
X188040000Y-89340000D02*
X190468000Y-89340000D01*
X188040000Y-89380000D02*
X190493000Y-89380000D01*
X188040000Y-89420000D02*
X190516000Y-89420000D01*
X188040000Y-89460000D02*
X190539000Y-89460000D01*
X188040000Y-89500000D02*
X190562000Y-89500000D01*
X188040000Y-89540000D02*
X190584000Y-89540000D01*
X188040000Y-89580000D02*
X190605000Y-89580000D01*
X188040000Y-89620000D02*
X190626000Y-89620000D01*
X188040000Y-89660000D02*
X190646000Y-89660000D01*
X188040000Y-89700000D02*
X190666000Y-89700000D01*
X188040000Y-89740000D02*
X190685000Y-89740000D01*
X188040000Y-89780000D02*
X190704000Y-89780000D01*
X188040000Y-89820000D02*
X190722000Y-89820000D01*
X188040000Y-89860000D02*
X190740000Y-89860000D01*
X188040000Y-89900000D02*
X190757000Y-89900000D01*
X188040000Y-89940000D02*
X190773000Y-89940000D01*
X188040000Y-89980000D02*
X190789000Y-89980000D01*
X188040000Y-90020000D02*
X190805000Y-90020000D01*
X191120000Y-91500000D02*
G75*
G02*
X182880000Y-91500000I-4120000J0D01*
G01*
X182880000Y-91500000D02*
G75*
G02*
X191120000Y-91500000I4120000J0D01*
G01*
%TO.C,R1*%
X116540000Y-82650000D02*
X117230000Y-82650000D01*
X127160000Y-82650000D02*
X126470000Y-82650000D01*
X117230000Y-80930000D02*
X126470000Y-80930000D01*
X126470000Y-84370000D01*
X117230000Y-84370000D01*
X117230000Y-80930000D01*
%TO.C,J5*%
X90580000Y-81880000D02*
X91960000Y-81880000D01*
X90580000Y-83260000D02*
X90580000Y-81880000D01*
X90580000Y-84530000D02*
X90580000Y-99880000D01*
X90580000Y-84530000D02*
X93230000Y-84530000D01*
X90580000Y-99880000D02*
X95880000Y-99880000D01*
X93230000Y-81880000D02*
X95880000Y-81880000D01*
X93230000Y-84530000D02*
X93230000Y-81880000D01*
X95880000Y-81880000D02*
X95880000Y-99880000D01*
%TO.C,Q3*%
X160360000Y-79360000D02*
X160360000Y-75890000D01*
X162870000Y-79360000D02*
X162870000Y-79140000D01*
X166070000Y-79360000D02*
X166070000Y-79140000D01*
X168580000Y-75890000D02*
X160360000Y-75890000D01*
X168580000Y-79360000D02*
X160360000Y-79360000D01*
X168580000Y-79360000D02*
X168580000Y-75890000D01*
%TO.C,J3*%
X192680000Y-92760000D02*
X202720000Y-92760000D01*
X192680000Y-103160000D02*
X192680000Y-92760000D01*
X192680000Y-103160000D02*
X202720000Y-103160000D01*
X195700000Y-103160000D02*
X195700000Y-92760000D01*
X200600000Y-103160000D02*
X200600000Y-92760000D01*
X202100000Y-103160000D02*
X202100000Y-92760000D01*
X202720000Y-100200000D02*
X202720000Y-92760000D01*
X202720000Y-103160000D02*
X202720000Y-100800000D01*
X203330000Y-100940000D02*
X202720000Y-100500000D01*
X203330000Y-100060000D01*
X203330000Y-100940000D01*
G36*
X203330000Y-100940000D02*
G01*
X202720000Y-100500000D01*
X203330000Y-100060000D01*
X203330000Y-100940000D01*
G37*
%TO.C,D2*%
X154940000Y-60514000D02*
X154940000Y-60670000D01*
X154940000Y-62830000D02*
X154940000Y-62986000D01*
X154940000Y-60514484D02*
G75*
G02*
X158171437Y-60670000I1560000J-1235516D01*
G01*
X155459039Y-60670000D02*
G75*
G02*
X157540961Y-60670000I1040961J-1080000D01*
G01*
X157540961Y-62830000D02*
G75*
G02*
X155459039Y-62830000I-1040961J1080000D01*
G01*
X158171437Y-62830000D02*
G75*
G02*
X154940000Y-62985516I-1671437J1080000D01*
G01*
%TO.C,R3*%
X139540000Y-79350000D02*
X140230000Y-79350000D01*
X150160000Y-79350000D02*
X149470000Y-79350000D01*
X140230000Y-77630000D02*
X149470000Y-77630000D01*
X149470000Y-81070000D01*
X140230000Y-81070000D01*
X140230000Y-77630000D01*
%TO.C,R8*%
X166340000Y-91500000D02*
X167030000Y-91500000D01*
X176960000Y-91500000D02*
X176270000Y-91500000D01*
X176270000Y-93220000D02*
X167030000Y-93220000D01*
X167030000Y-89780000D01*
X176270000Y-89780000D01*
X176270000Y-93220000D01*
%TO.C,D3*%
X177430000Y-99030000D02*
X177430000Y-99360000D01*
X177430000Y-102970000D02*
X177430000Y-102640000D01*
X184995000Y-102970000D02*
X184995000Y-99030000D01*
X185115000Y-102970000D02*
X185115000Y-99030000D01*
X185235000Y-102970000D02*
X185235000Y-99030000D01*
X186570000Y-99030000D02*
X177430000Y-99030000D01*
X186570000Y-99360000D02*
X186570000Y-99030000D01*
X186570000Y-102640000D02*
X186570000Y-102970000D01*
X186570000Y-102970000D02*
X177430000Y-102970000D01*
%TO.C,R11*%
X188000000Y-71940000D02*
X188000000Y-72630000D01*
X188000000Y-82560000D02*
X188000000Y-81870000D01*
X189720000Y-72630000D02*
X186280000Y-72630000D01*
X186280000Y-81870000D01*
X189720000Y-81870000D01*
X189720000Y-72630000D01*
%TO.C,Q1*%
X131150000Y-81430000D02*
X131150000Y-85030000D01*
X131161522Y-81391522D02*
G75*
G02*
X135600001Y-83230000I1838478J-1838478D01*
G01*
X135600000Y-83230000D02*
G75*
G02*
X131161522Y-85068478I-2600000J0D01*
G01*
%TO.C,R6*%
X100000000Y-81340000D02*
X100000000Y-82030000D01*
X100000000Y-91960000D02*
X100000000Y-91270000D01*
X98280000Y-91270000D02*
X101720000Y-91270000D01*
X101720000Y-82030000D01*
X98280000Y-82030000D01*
X98280000Y-91270000D01*
%TO.C,Q4*%
X160390000Y-84735000D02*
X160390000Y-81265000D01*
X162900000Y-84735000D02*
X162900000Y-84515000D01*
X166100000Y-84735000D02*
X166100000Y-84515000D01*
X168610000Y-81265000D02*
X160390000Y-81265000D01*
X168610000Y-84735000D02*
X160390000Y-84735000D01*
X168610000Y-84735000D02*
X168610000Y-81265000D01*
%TO.C,U3*%
X105040000Y-79090000D02*
X105040000Y-86830000D01*
X105040000Y-86830000D02*
X110340000Y-86830000D01*
X106690000Y-79090000D02*
X105040000Y-79090000D01*
X110340000Y-79090000D02*
X108690000Y-79090000D01*
X110340000Y-86830000D02*
X110340000Y-79090000D01*
X108690000Y-79090000D02*
G75*
G02*
X106690000Y-79090000I-1000000J0D01*
G01*
%TO.C,R10*%
X172940000Y-71250000D02*
X173630000Y-71250000D01*
X183560000Y-71250000D02*
X182870000Y-71250000D01*
X182870000Y-72970000D02*
X173630000Y-72970000D01*
X173630000Y-69530000D01*
X182870000Y-69530000D01*
X182870000Y-72970000D01*
%TO.C,D1*%
X173350000Y-74780000D02*
X182490000Y-74780000D01*
X173350000Y-75110000D02*
X173350000Y-74780000D01*
X173350000Y-78390000D02*
X173350000Y-78720000D01*
X173350000Y-78720000D02*
X182490000Y-78720000D01*
X174685000Y-74780000D02*
X174685000Y-78720000D01*
X174805000Y-74780000D02*
X174805000Y-78720000D01*
X174925000Y-74780000D02*
X174925000Y-78720000D01*
X182490000Y-74780000D02*
X182490000Y-75110000D01*
X182490000Y-78720000D02*
X182490000Y-78390000D01*
%TO.C,R2*%
X133000000Y-67690000D02*
X133000000Y-68380000D01*
X133000000Y-78310000D02*
X133000000Y-77620000D01*
X134720000Y-68380000D02*
X131280000Y-68380000D01*
X131280000Y-77620000D01*
X134720000Y-77620000D01*
X134720000Y-68380000D01*
D12*
%TO.C,S1*%
X176400000Y-58820000D02*
X189100000Y-58820000D01*
X176400000Y-60540000D02*
X176400000Y-58820000D01*
X176400000Y-65680000D02*
X176400000Y-63960000D01*
X189100000Y-60540000D02*
X189100000Y-58820000D01*
X189100000Y-65680000D02*
X176400000Y-65680000D01*
X189100000Y-65680000D02*
X189100000Y-63960000D01*
D13*
X187550000Y-58250000D02*
G75*
G02*
X187350000Y-58250000I-100000J0D01*
G01*
X187350000Y-58250000D02*
G75*
G02*
X187550000Y-58250000I100000J0D01*
G01*
D11*
%TO.C,L2*%
X148475000Y-86545000D02*
X162685000Y-86545000D01*
X148475000Y-99753000D02*
X148475000Y-86545000D01*
X148475000Y-113455000D02*
X148475000Y-100247000D01*
X148475000Y-113455000D02*
X162685000Y-113455000D01*
X162685000Y-99753000D02*
X162685000Y-86545000D01*
X162685000Y-113455000D02*
X162685000Y-100247000D01*
%TO.C,C1*%
X192090302Y-71185000D02*
X192890302Y-71185000D01*
X192490302Y-70785000D02*
X192490302Y-71585000D01*
X196500000Y-69420000D02*
X196500000Y-77580000D01*
X196540000Y-69420000D02*
X196540000Y-77580000D01*
X196580000Y-69421000D02*
X196580000Y-77579000D01*
X196620000Y-69422000D02*
X196620000Y-77578000D01*
X196660000Y-69423000D02*
X196660000Y-77577000D01*
X196700000Y-69425000D02*
X196700000Y-77575000D01*
X196740000Y-69427000D02*
X196740000Y-77573000D01*
X196780000Y-69430000D02*
X196780000Y-77570000D01*
X196820000Y-69432000D02*
X196820000Y-77568000D01*
X196860000Y-69436000D02*
X196860000Y-77564000D01*
X196900000Y-69439000D02*
X196900000Y-77561000D01*
X196940000Y-69444000D02*
X196940000Y-77556000D01*
X196980000Y-69448000D02*
X196980000Y-77552000D01*
X197020000Y-69453000D02*
X197020000Y-77547000D01*
X197060000Y-69458000D02*
X197060000Y-77542000D01*
X197100000Y-69464000D02*
X197100000Y-77536000D01*
X197140000Y-69470000D02*
X197140000Y-77530000D01*
X197180000Y-69477000D02*
X197180000Y-77523000D01*
X197220000Y-69483000D02*
X197220000Y-77517000D01*
X197260000Y-69491000D02*
X197260000Y-77509000D01*
X197300000Y-69498000D02*
X197300000Y-77502000D01*
X197340000Y-69507000D02*
X197340000Y-77493000D01*
X197380000Y-69515000D02*
X197380000Y-77485000D01*
X197420000Y-69524000D02*
X197420000Y-77476000D01*
X197460000Y-69533000D02*
X197460000Y-77467000D01*
X197500000Y-69543000D02*
X197500000Y-77457000D01*
X197540000Y-69553000D02*
X197540000Y-77447000D01*
X197580000Y-69564000D02*
X197580000Y-77436000D01*
X197620000Y-69575000D02*
X197620000Y-77425000D01*
X197660000Y-69587000D02*
X197660000Y-77413000D01*
X197700000Y-69599000D02*
X197700000Y-77401000D01*
X197740000Y-69611000D02*
X197740000Y-77389000D01*
X197780000Y-69624000D02*
X197780000Y-77376000D01*
X197820000Y-69637000D02*
X197820000Y-77363000D01*
X197860000Y-69651000D02*
X197860000Y-77349000D01*
X197900000Y-69665000D02*
X197900000Y-77335000D01*
X197940000Y-69680000D02*
X197940000Y-77320000D01*
X197980000Y-69695000D02*
X197980000Y-72460000D01*
X197980000Y-74540000D02*
X197980000Y-77305000D01*
X198020000Y-69711000D02*
X198020000Y-72460000D01*
X198020000Y-74540000D02*
X198020000Y-77289000D01*
X198060000Y-69727000D02*
X198060000Y-72460000D01*
X198060000Y-74540000D02*
X198060000Y-77273000D01*
X198100000Y-69743000D02*
X198100000Y-72460000D01*
X198100000Y-74540000D02*
X198100000Y-77257000D01*
X198140000Y-69760000D02*
X198140000Y-72460000D01*
X198140000Y-74540000D02*
X198140000Y-77240000D01*
X198180000Y-69778000D02*
X198180000Y-72460000D01*
X198180000Y-74540000D02*
X198180000Y-77222000D01*
X198220000Y-69796000D02*
X198220000Y-72460000D01*
X198220000Y-74540000D02*
X198220000Y-77204000D01*
X198260000Y-69815000D02*
X198260000Y-72460000D01*
X198260000Y-74540000D02*
X198260000Y-77185000D01*
X198300000Y-69834000D02*
X198300000Y-72460000D01*
X198300000Y-74540000D02*
X198300000Y-77166000D01*
X198340000Y-69854000D02*
X198340000Y-72460000D01*
X198340000Y-74540000D02*
X198340000Y-77146000D01*
X198380000Y-69874000D02*
X198380000Y-72460000D01*
X198380000Y-74540000D02*
X198380000Y-77126000D01*
X198420000Y-69895000D02*
X198420000Y-72460000D01*
X198420000Y-74540000D02*
X198420000Y-77105000D01*
X198460000Y-69916000D02*
X198460000Y-72460000D01*
X198460000Y-74540000D02*
X198460000Y-77084000D01*
X198500000Y-69938000D02*
X198500000Y-72460000D01*
X198500000Y-74540000D02*
X198500000Y-77062000D01*
X198540000Y-69961000D02*
X198540000Y-72460000D01*
X198540000Y-74540000D02*
X198540000Y-77039000D01*
X198580000Y-69984000D02*
X198580000Y-72460000D01*
X198580000Y-74540000D02*
X198580000Y-77016000D01*
X198620000Y-70007000D02*
X198620000Y-72460000D01*
X198620000Y-74540000D02*
X198620000Y-76993000D01*
X198660000Y-70032000D02*
X198660000Y-72460000D01*
X198660000Y-74540000D02*
X198660000Y-76968000D01*
X198700000Y-70057000D02*
X198700000Y-72460000D01*
X198700000Y-74540000D02*
X198700000Y-76943000D01*
X198740000Y-70082000D02*
X198740000Y-72460000D01*
X198740000Y-74540000D02*
X198740000Y-76918000D01*
X198780000Y-70108000D02*
X198780000Y-72460000D01*
X198780000Y-74540000D02*
X198780000Y-76892000D01*
X198820000Y-70135000D02*
X198820000Y-72460000D01*
X198820000Y-74540000D02*
X198820000Y-76865000D01*
X198860000Y-70163000D02*
X198860000Y-72460000D01*
X198860000Y-74540000D02*
X198860000Y-76837000D01*
X198900000Y-70191000D02*
X198900000Y-72460000D01*
X198900000Y-74540000D02*
X198900000Y-76809000D01*
X198940000Y-70220000D02*
X198940000Y-72460000D01*
X198940000Y-74540000D02*
X198940000Y-76780000D01*
X198980000Y-70250000D02*
X198980000Y-72460000D01*
X198980000Y-74540000D02*
X198980000Y-76750000D01*
X199020000Y-70281000D02*
X199020000Y-72460000D01*
X199020000Y-74540000D02*
X199020000Y-76719000D01*
X199060000Y-70312000D02*
X199060000Y-72460000D01*
X199060000Y-74540000D02*
X199060000Y-76688000D01*
X199100000Y-70344000D02*
X199100000Y-72460000D01*
X199100000Y-74540000D02*
X199100000Y-76656000D01*
X199140000Y-70377000D02*
X199140000Y-72460000D01*
X199140000Y-74540000D02*
X199140000Y-76623000D01*
X199180000Y-70411000D02*
X199180000Y-72460000D01*
X199180000Y-74540000D02*
X199180000Y-76589000D01*
X199220000Y-70445000D02*
X199220000Y-72460000D01*
X199220000Y-74540000D02*
X199220000Y-76555000D01*
X199260000Y-70481000D02*
X199260000Y-72460000D01*
X199260000Y-74540000D02*
X199260000Y-76519000D01*
X199300000Y-70518000D02*
X199300000Y-72460000D01*
X199300000Y-74540000D02*
X199300000Y-76482000D01*
X199340000Y-70555000D02*
X199340000Y-72460000D01*
X199340000Y-74540000D02*
X199340000Y-76445000D01*
X199380000Y-70594000D02*
X199380000Y-72460000D01*
X199380000Y-74540000D02*
X199380000Y-76406000D01*
X199420000Y-70633000D02*
X199420000Y-72460000D01*
X199420000Y-74540000D02*
X199420000Y-76367000D01*
X199460000Y-70674000D02*
X199460000Y-72460000D01*
X199460000Y-74540000D02*
X199460000Y-76326000D01*
X199500000Y-70716000D02*
X199500000Y-72460000D01*
X199500000Y-74540000D02*
X199500000Y-76284000D01*
X199540000Y-70759000D02*
X199540000Y-72460000D01*
X199540000Y-74540000D02*
X199540000Y-76241000D01*
X199580000Y-70804000D02*
X199580000Y-72460000D01*
X199580000Y-74540000D02*
X199580000Y-76196000D01*
X199620000Y-70849000D02*
X199620000Y-72460000D01*
X199620000Y-74540000D02*
X199620000Y-76151000D01*
X199660000Y-70896000D02*
X199660000Y-72460000D01*
X199660000Y-74540000D02*
X199660000Y-76104000D01*
X199700000Y-70945000D02*
X199700000Y-72460000D01*
X199700000Y-74540000D02*
X199700000Y-76055000D01*
X199740000Y-70995000D02*
X199740000Y-72460000D01*
X199740000Y-74540000D02*
X199740000Y-76005000D01*
X199780000Y-71047000D02*
X199780000Y-72460000D01*
X199780000Y-74540000D02*
X199780000Y-75953000D01*
X199820000Y-71100000D02*
X199820000Y-72460000D01*
X199820000Y-74540000D02*
X199820000Y-75900000D01*
X199860000Y-71156000D02*
X199860000Y-72460000D01*
X199860000Y-74540000D02*
X199860000Y-75844000D01*
X199900000Y-71213000D02*
X199900000Y-72460000D01*
X199900000Y-74540000D02*
X199900000Y-75787000D01*
X199940000Y-71273000D02*
X199940000Y-72460000D01*
X199940000Y-74540000D02*
X199940000Y-75727000D01*
X199980000Y-71335000D02*
X199980000Y-72460000D01*
X199980000Y-74540000D02*
X199980000Y-75665000D01*
X200020000Y-71399000D02*
X200020000Y-72460000D01*
X200020000Y-74540000D02*
X200020000Y-75601000D01*
X200060000Y-71466000D02*
X200060000Y-75534000D01*
X200100000Y-71536000D02*
X200100000Y-75464000D01*
X200140000Y-71610000D02*
X200140000Y-75390000D01*
X200180000Y-71687000D02*
X200180000Y-75313000D01*
X200220000Y-71769000D02*
X200220000Y-75231000D01*
X200260000Y-71856000D02*
X200260000Y-75144000D01*
X200300000Y-71948000D02*
X200300000Y-75052000D01*
X200340000Y-72047000D02*
X200340000Y-74953000D01*
X200380000Y-72154000D02*
X200380000Y-74846000D01*
X200420000Y-72272000D02*
X200420000Y-74728000D01*
X200460000Y-72403000D02*
X200460000Y-74597000D01*
X200500000Y-72553000D02*
X200500000Y-74447000D01*
X200540000Y-72732000D02*
X200540000Y-74268000D01*
X200580000Y-72967000D02*
X200580000Y-74033000D01*
X200620000Y-73500000D02*
G75*
G02*
X192380000Y-73500000I-4120000J0D01*
G01*
X192380000Y-73500000D02*
G75*
G02*
X200620000Y-73500000I4120000J0D01*
G01*
%TO.C,Q2*%
X154150000Y-77700000D02*
X154150000Y-81300000D01*
X154161522Y-77661522D02*
G75*
G02*
X158600001Y-79500000I1838478J-1838478D01*
G01*
X158600000Y-79500000D02*
G75*
G02*
X154161522Y-81338478I-2600000J0D01*
G01*
%TO.C,R7*%
X162190000Y-61750000D02*
X162880000Y-61750000D01*
X172810000Y-61750000D02*
X172120000Y-61750000D01*
X162880000Y-60030000D02*
X172120000Y-60030000D01*
X172120000Y-63470000D01*
X162880000Y-63470000D01*
X162880000Y-60030000D01*
%TO.C,R4*%
X144690000Y-67500000D02*
X145380000Y-67500000D01*
X155310000Y-67500000D02*
X154620000Y-67500000D01*
X145380000Y-65780000D02*
X154620000Y-65780000D01*
X154620000Y-69220000D01*
X145380000Y-69220000D01*
X145380000Y-65780000D01*
%TO.C,J2*%
X191805000Y-67897500D02*
X191805000Y-57857500D01*
X199245000Y-57857500D02*
X191805000Y-57857500D01*
X202205000Y-57857500D02*
X199845000Y-57857500D01*
X202205000Y-58477500D02*
X191805000Y-58477500D01*
X202205000Y-59977500D02*
X191805000Y-59977500D01*
X202205000Y-64877500D02*
X191805000Y-64877500D01*
X202205000Y-67897500D02*
X191805000Y-67897500D01*
X202205000Y-67897500D02*
X202205000Y-57857500D01*
X199545000Y-57857500D02*
X199105000Y-57247500D01*
X199985000Y-57247500D01*
X199545000Y-57857500D01*
G36*
X199545000Y-57857500D02*
G01*
X199105000Y-57247500D01*
X199985000Y-57247500D01*
X199545000Y-57857500D01*
G37*
%TO.C,J1*%
X133260000Y-94180000D02*
X133260000Y-104220000D01*
X133260000Y-94180000D02*
X143660000Y-94180000D01*
X133260000Y-97200000D02*
X143660000Y-97200000D01*
X133260000Y-102100000D02*
X143660000Y-102100000D01*
X133260000Y-103600000D02*
X143660000Y-103600000D01*
X133260000Y-104220000D02*
X135620000Y-104220000D01*
X136220000Y-104220000D02*
X143660000Y-104220000D01*
X143660000Y-94180000D02*
X143660000Y-104220000D01*
X136360000Y-104830000D02*
X135480000Y-104830000D01*
X135920000Y-104220000D01*
X136360000Y-104830000D01*
G36*
X136360000Y-104830000D02*
G01*
X135480000Y-104830000D01*
X135920000Y-104220000D01*
X136360000Y-104830000D01*
G37*
%TD*%
M02*
