M48
; DRILL file {KiCad 9.0.2} date 2025-06-10T15:27:31-0300
; FORMAT={-:-/ absolute / metric / decimal}
; #@! TF.CreationDate,2025-06-10T15:27:31-03:00
; #@! TF.GenerationSoftware,Kicad,Pcbnew,9.0.2
; #@! TF.FileFunction,Plated,1,2,PTH
FMAT,2
METRIC
; #@! TA.AperFunction,Plated,PTH,ComponentDrill
T1C0.750
; #@! TA.AperFunction,Plated,PTH,ComponentDrill
T2C0.800
; #@! TA.AperFunction,Plated,PTH,ComponentDrill
T3C0.900
; #@! TA.AperFunction,Plated,PTH,ComponentDrill
T4C1.000
; #@! TA.AperFunction,Plated,PTH,ComponentDrill
T5C1.100
; #@! TA.AperFunction,Plated,PTH,ComponentDrill
T6C1.300
; #@! TA.AperFunction,Plated,PTH,ComponentDrill
T7C1.400
; #@! TA.AperFunction,Plated,PTH,ComponentDrill
T8C1.800
; #@! TA.AperFunction,Plated,PTH,ComponentDrill
T9C1.850
%
G90
G05
T1
X133.0Y-81.96
X133.0Y-83.23
X133.0Y-84.5
X156.0Y-78.23
X156.0Y-79.5
X156.0Y-80.77
T2
X100.0Y-80.3
X100.0Y-93.0
X103.88Y-80.42
X103.88Y-82.96
X103.88Y-85.5
X111.5Y-80.42
X111.5Y-82.96
X111.5Y-85.5
X115.5Y-67.0
X115.5Y-79.7
X115.5Y-82.65
X128.2Y-82.65
X133.0Y-66.65
X133.0Y-79.35
X138.5Y-79.35
X143.65Y-67.5
X151.2Y-79.35
X156.35Y-67.5
X161.15Y-61.75
X165.3Y-91.5
X171.9Y-71.25
X173.85Y-61.75
X178.0Y-91.5
X184.6Y-71.25
X187.0Y-89.0
X187.0Y-94.0
X188.0Y-70.9
X188.0Y-83.6
X194.0Y-73.5
X199.0Y-73.5
T3
X155.23Y-61.75
X157.77Y-61.75
T4
X91.96Y-83.26
X91.96Y-85.8
X91.96Y-88.34
X91.96Y-90.88
X91.96Y-93.42
X91.96Y-95.96
X91.96Y-98.5
X94.5Y-83.26
X94.5Y-85.8
X94.5Y-88.34
X94.5Y-90.88
X94.5Y-93.42
X94.5Y-95.96
X94.5Y-98.5
X162.19Y-77.25
X162.22Y-82.625
X164.47Y-77.25
X164.5Y-82.625
X166.75Y-77.25
X166.78Y-82.625
T5
X174.25Y-95.5
X176.79Y-95.5
X179.33Y-95.5
T6
X135.92Y-99.5
X141.0Y-99.5
X194.465Y-62.578
X198.0Y-95.42
X198.0Y-100.5
X199.545Y-62.578
T7
X172.84Y-76.75
X176.92Y-101.0
X183.0Y-76.75
X187.08Y-101.0
T8
X150.5Y-100.0
X160.66Y-100.0
T9
X178.05Y-62.25
X182.75Y-62.25
X187.45Y-62.25
M30
