%TF.GenerationSoftware,KiCad,Pcbnew,9.0.2*%
%TF.CreationDate,2025-06-10T15:27:33-03:00*%
%TF.ProjectId,proj3_potencia,70726f6a-335f-4706-9f74-656e6369612e,rev?*%
%TF.SameCoordinates,Original*%
%TF.FileFunction,Soldermask,Top*%
%TF.FilePolarity,Negative*%
%FSLAX46Y46*%
G04 Gerber Fmt 4.6, Leading zero omitted, Abs format (unit mm)*
G04 Created by KiCad (PCBNEW 9.0.2) date 2025-06-10 15:27:33*
%MOMM*%
%LPD*%
G01*
G04 APERTURE LIST*
G04 Aperture macros list*
%AMRoundRect*
0 Rectangle with rounded corners*
0 $1 Rounding radius*
0 $2 $3 $4 $5 $6 $7 $8 $9 X,Y pos of 4 corners*
0 Add a 4 corners polygon primitive as box body*
4,1,4,$2,$3,$4,$5,$6,$7,$8,$9,$2,$3,0*
0 Add four circle primitives for the rounded corners*
1,1,$1+$1,$2,$3*
1,1,$1+$1,$4,$5*
1,1,$1+$1,$6,$7*
1,1,$1+$1,$8,$9*
0 Add four rect primitives between the rounded corners*
20,1,$1+$1,$2,$3,$4,$5,0*
20,1,$1+$1,$4,$5,$6,$7,0*
20,1,$1+$1,$6,$7,$8,$9,0*
20,1,$1+$1,$8,$9,$2,$3,0*%
G04 Aperture macros list end*
%ADD10C,1.600000*%
%ADD11R,1.905000X2.000000*%
%ADD12O,1.905000X2.000000*%
%ADD13RoundRect,0.250000X0.550000X-0.550000X0.550000X0.550000X-0.550000X0.550000X-0.550000X-0.550000X0*%
%ADD14R,1.700000X1.700000*%
%ADD15C,1.700000*%
%ADD16R,1.710000X1.800000*%
%ADD17O,1.710000X1.800000*%
%ADD18RoundRect,0.250000X1.050000X-1.050000X1.050000X1.050000X-1.050000X1.050000X-1.050000X-1.050000X0*%
%ADD19C,2.600000*%
%ADD20R,1.800000X1.800000*%
%ADD21C,1.800000*%
%ADD22RoundRect,0.250001X1.149999X1.149999X-1.149999X1.149999X-1.149999X-1.149999X1.149999X-1.149999X0*%
%ADD23C,2.800000*%
%ADD24R,1.500000X1.050000*%
%ADD25O,1.500000X1.050000*%
%ADD26RoundRect,0.250000X-0.550000X-0.550000X0.550000X-0.550000X0.550000X0.550000X-0.550000X0.550000X0*%
%ADD27RoundRect,0.250001X-1.149999X-1.149999X1.149999X-1.149999X1.149999X1.149999X-1.149999X1.149999X0*%
%ADD28RoundRect,0.102000X-1.387500X1.387500X-1.387500X-1.387500X1.387500X-1.387500X1.387500X1.387500X0*%
%ADD29C,2.979000*%
%ADD30C,3.600000*%
%ADD31RoundRect,0.250000X1.050000X1.050000X-1.050000X1.050000X-1.050000X-1.050000X1.050000X-1.050000X0*%
%ADD32RoundRect,0.250000X-1.050000X-1.050000X1.050000X-1.050000X1.050000X1.050000X-1.050000X1.050000X0*%
G04 APERTURE END LIST*
D10*
%TO.C,R5*%
X115500000Y-79700000D03*
X115500000Y-67000000D03*
%TD*%
D11*
%TO.C,Q6*%
X179330000Y-95500000D03*
D12*
X176790000Y-95500000D03*
X174250000Y-95500000D03*
%TD*%
D13*
%TO.C,C2*%
X187000000Y-94000000D03*
D10*
X187000000Y-89000000D03*
%TD*%
%TO.C,R1*%
X115500000Y-82650000D03*
X128200000Y-82650000D03*
%TD*%
D14*
%TO.C,J5*%
X91960000Y-83260000D03*
D15*
X94500000Y-83260000D03*
X91960000Y-85800000D03*
X94500000Y-85800000D03*
X91960000Y-88340000D03*
X94500000Y-88340000D03*
X91960000Y-90880000D03*
X94500000Y-90880000D03*
X91960000Y-93420000D03*
X94500000Y-93420000D03*
X91960000Y-95960000D03*
X94500000Y-95960000D03*
X91960000Y-98500000D03*
X94500000Y-98500000D03*
%TD*%
D16*
%TO.C,Q3*%
X166750000Y-77250000D03*
D17*
X164470000Y-77250000D03*
X162190000Y-77250000D03*
%TD*%
D18*
%TO.C,J3*%
X198000000Y-100500000D03*
D19*
X198000000Y-95420000D03*
%TD*%
D20*
%TO.C,D2*%
X155230000Y-61750000D03*
D21*
X157770000Y-61750000D03*
%TD*%
D10*
%TO.C,R3*%
X138500000Y-79350000D03*
X151200000Y-79350000D03*
%TD*%
%TO.C,R8*%
X178000000Y-91500000D03*
X165300000Y-91500000D03*
%TD*%
D22*
%TO.C,D3*%
X187080000Y-101000000D03*
D23*
X176920000Y-101000000D03*
%TD*%
D10*
%TO.C,R11*%
X188000000Y-70900000D03*
X188000000Y-83600000D03*
%TD*%
D24*
%TO.C,Q1*%
X133000000Y-81960000D03*
D25*
X133000000Y-83230000D03*
X133000000Y-84500000D03*
%TD*%
D10*
%TO.C,R6*%
X100000000Y-93000000D03*
X100000000Y-80300000D03*
%TD*%
D16*
%TO.C,Q4*%
X166780000Y-82625000D03*
D17*
X164500000Y-82625000D03*
X162220000Y-82625000D03*
%TD*%
D26*
%TO.C,U3*%
X103880000Y-80420000D03*
D10*
X103880000Y-82960000D03*
X103880000Y-85500000D03*
X111500000Y-85500000D03*
X111500000Y-82960000D03*
X111500000Y-80420000D03*
%TD*%
%TO.C,R10*%
X184600000Y-71250000D03*
X171900000Y-71250000D03*
%TD*%
D27*
%TO.C,D1*%
X172840000Y-76750000D03*
D23*
X183000000Y-76750000D03*
%TD*%
D10*
%TO.C,R2*%
X133000000Y-66650000D03*
X133000000Y-79350000D03*
%TD*%
D28*
%TO.C,S1*%
X187450000Y-62250000D03*
D29*
X182750000Y-62250000D03*
X178050000Y-62250000D03*
%TD*%
D30*
%TO.C,L2*%
X150500000Y-100000000D03*
X160660000Y-100000000D03*
%TD*%
D26*
%TO.C,C1*%
X194000000Y-73500000D03*
D10*
X199000000Y-73500000D03*
%TD*%
D24*
%TO.C,Q2*%
X156000000Y-78230000D03*
D25*
X156000000Y-79500000D03*
X156000000Y-80770000D03*
%TD*%
D10*
%TO.C,R7*%
X161150000Y-61750000D03*
X173850000Y-61750000D03*
%TD*%
%TO.C,R4*%
X143650000Y-67500000D03*
X156350000Y-67500000D03*
%TD*%
D31*
%TO.C,J2*%
X199545000Y-62577500D03*
D19*
X194465000Y-62577500D03*
%TD*%
D32*
%TO.C,J1*%
X135920000Y-99500000D03*
D19*
X141000000Y-99500000D03*
%TD*%
M02*
